<svg width="2000" height="1071.3" fill-rule="evenodd" viewBox="0 0 56444.445 30233.249" xmlns="http://www.w3.org/2000/svg">
  <path d="M52688.74 17512.453l-2773.12-1388.555v-1995.05l2773.12 1388.555z" fill="#9e9e9e"/>
  <path d="M37035.577 7808.53l-490.782 243.396v-1995.05l490.782-243.396z" fill="#030101"/>
  <path d="M34665.457 8502.807L32387.11 7361.638v-1995.05l2278.347 1141.169zM38827.132 10581.649l-897.773-446.891v-1995.05l897.773 446.891zM38827.132 7808.53L35160.23 5973.084v-1995.05l3666.902 1835.446zM49915.62 14739.333l-1388.555-694.277v-1995.05l1388.555 694.277zM34665.457 5729.687L32387.11 4588.52v-1995.05l2278.347 1141.168z" fill="#9e9e9e"/>
  <path d="M36544.794 8051.926l-3263.901-1631.951v-1995.05l3263.902 1631.95zM33771.675 9440.48l-490.782-247.386v-1995.05l490.782 247.386z" fill="#9e9e9e"/>
  <path d="M37438.577 9887.372L35160.23 8746.203v-1995.05l2278.347 1141.169zM55457.868 16123.898l-9209.15-4604.575v-1995.05l9209.15 4604.575zM45757.935 11271.936l-2282.337-1137.178v-1995.05l2282.337 1137.178z" fill="#9e9e9e"/>
  <path d="M53179.521 16371.284l-2773.12-1388.555v-1995.05l2773.12 1388.555z" fill="#9e9e9e"/>
  <path d="M50897.184 17512.453l-490.782 243.396v-1995.05l490.782-243.396zM48124.065 13350.778l-1384.565 694.278v-1995.05l1384.565-694.278z" fill="#030101"/>
  <path d="M48124.065 14739.333l-490.783 243.396v-1995.05l490.783-243.396zM50406.402 14982.73l-2282.337 1141.168v-1995.05l2282.337-1141.169zM32530.754 5901.262v-1995.05l43.891-19.95 43.891-23.941 43.891-19.95 39.901-19.951 43.891-23.941 43.891-19.95 43.892-23.941 43.89-19.95v1995.05l-43.89 19.95-43.892 23.94-43.89 19.951-43.892 19.95-39.9 23.941-43.892 19.95-43.891 23.941zM32183.615 6076.826v-1995.05l43.891-23.94 43.891-19.951 43.892-23.94 43.89-19.951 39.902-19.95 43.89-23.941 43.892-19.95 43.89-23.941v1995.05l-43.89 23.94-43.891 19.95-43.891 19.951-39.901 23.94-43.891 19.951-43.892 23.941-43.89 19.95zM31836.476 6248.4V4253.35l43.892-19.95 43.89-23.94 43.892-19.951 43.89-23.94 43.892-19.951 39.901-19.95 43.891-23.941 43.891-19.95v1995.05l-43.89 19.95-43.892 19.95-39.901 23.94-43.891 19.951-43.891 23.94-43.891 19.951-43.891 23.94z" fill="#030101"/>
  <path d="M31489.338 6419.975v-1995.05l43.89-19.95 43.892-19.951 43.891-23.94 43.891-19.951 43.891-23.941 43.891-19.95 39.901-23.941 43.892-19.95V6248.4l-43.892 19.95-39.9 23.94-43.892 19.951-43.89 23.94-43.892 19.951-43.891 23.94-43.891 19.951zM34813.091 8921.767v-1995.05l43.891-23.94 39.901-19.95 43.891-23.941 43.891-19.95 43.891-23.941 43.892-19.95 43.89-19.951 43.892-23.941v1995.05l-43.891 23.94-43.891 19.951-43.891 19.95-43.892 23.941-43.89 19.95-43.892 23.941-39.9 19.95zM34465.952 9093.342v-1995.05l43.892-19.95 43.89-23.941 39.902-19.95 43.89-23.942 43.892-19.95 43.89-23.94 43.892-19.951 43.891-19.95v1995.05l-43.891 19.95-43.891 19.95-43.891 23.941-43.891 19.95-43.891 23.941-39.901 19.95-43.891 23.941z" fill="#030101"/>
  <path d="M34118.814 9264.916v-1995.05l43.89-19.95 43.892-19.951 43.891-23.94 39.901-19.951 43.891-23.94 43.891-19.951 43.891-23.94 43.891-19.951v1995.05l-43.89 19.95-43.892 23.94-43.89 19.951-43.892 23.94-39.901 19.951-43.891 23.941-43.891 19.95z" fill="#030101"/>
  <path d="M33771.675 9440.48V7445.43l43.891-23.94 43.891-19.95 43.891-19.951 43.891-23.94 39.901-19.951 43.892-23.94 43.89-19.951 43.892-23.941v1995.05l-43.891 23.94-43.891 19.951-43.892 23.94-39.9 19.951-43.892 23.94-43.89 19.951-43.892 19.95zM40702.479 11519.323l-2282.337 1141.168v-1995.05l2282.337-1141.169zM46248.718 11519.323l-1388.555 694.277v-1995.05l1388.555-694.277z" fill="#030101"/>
  <path d="M42984.816 9887.372l-2282.337-1141.169v-1995.05l2282.337 1141.169z" fill="#9e9e9e"/>
  <path d="M46739.5 12660.491l-1388.555 690.287v-1995.05l1388.555-690.287zM43475.598 10134.758l-2282.337 1137.178v-1995.05l2282.337-1137.178zM53670.304 16123.898l-490.783 247.386v-1995.05l490.783-247.386z" fill="#030101"/>
  <path d="M40211.696 8502.807l-893.782-450.881v-1995.05l893.782 450.88zM44860.163 12213.6l-1875.347-941.664v-1995.05l1875.347 941.664z" fill="#9e9e9e"/>
  <path d="M39317.914 8051.926l-1388.555 694.277v-1995.05l1388.555-694.277zM40702.479 8746.203l-1384.565 694.277V7445.43l1384.565-694.277z" fill="#030101"/>
  <path d="M37929.36 8746.203l-490.783-243.396v-1995.05l490.782 243.396z" fill="#9e9e9e"/>
  <path d="M37586.21 10306.332v-1995.05l39.902-19.95 43.89-23.941 43.892-19.95 43.89-23.941 43.892-19.95 43.891-23.941 43.891-19.95 39.901-19.951v1995.05l-39.9 19.95-43.892 19.95-43.891 23.941-43.891 19.95-43.891 23.942-43.891 19.95-43.891 23.94z" fill="#030101"/>
  <path d="M37239.072 10477.906v-1995.05l43.891-19.95 39.901-19.95 43.891-23.941 43.891-19.95 43.891-23.941 43.891-19.95 43.892-23.941 43.89-19.95v1995.05l-43.89 19.95-43.892 23.94-43.89 19.95-43.892 23.941-43.89 19.95-43.892 23.941-39.901 19.95zM36891.933 10653.47V8658.42l43.891-23.94 43.891-19.95 39.901-19.95 43.891-23.941 43.892-19.95 43.89-23.942 43.892-19.95 43.89-23.94v1995.05l-43.89 23.94-43.891 19.95-43.891 23.941-43.891 19.95-43.892 23.941-39.9 19.95-43.892 19.951z" fill="#030101"/>
  <path d="M36544.794 10825.045v-1995.05l43.892-19.95 43.89-23.941 43.892-19.95 39.9-19.951 43.892-23.94 43.891-19.951 43.891-23.94 43.891-19.951v1995.05l-43.89 19.95-43.892 23.94-43.891 19.951-43.891 23.941-39.901 19.95-43.891 19.951-43.891 23.94z" fill="#030101"/>
  <path d="M39317.914 9440.48l-490.782-247.386v-1995.05l490.782 247.386zM36544.794 10825.045l-490.782-243.396v-1995.05l490.782 243.396z" fill="#9e9e9e"/>
  <path d="M35303.873 10058.946v-1995.05l43.891-19.95 43.892-19.951 39.9-23.94 43.892-19.951 43.89-23.94 43.892-19.951 43.891-23.94 43.891-19.951v1995.05l-43.891 19.95-43.891 23.94-43.891 19.951-43.891 23.94-43.891 19.951-39.901 23.94-43.892 19.951z" fill="#030101"/>
  <path d="M34956.735 10234.51V8239.46l43.89-23.94 43.892-19.95 43.891-19.951 39.901-23.94 43.891-19.951 43.891-23.941 43.891-19.95 43.891-23.941v1995.05l-43.89 23.94-43.892 19.951-43.89 23.94-43.892 19.951-39.901 23.94-43.891 19.951-43.891 19.95zM34609.596 10406.085v-1995.05l43.891-19.95 43.891-23.941 43.891-19.951 43.891-19.95 39.901-23.941 43.891-19.95 43.892-23.941 43.89-19.95v1995.05l-43.89 19.95-43.891 23.94-43.892 19.95-39.9 23.941-43.892 19.951-43.89 19.95-43.892 23.941z" fill="#030101"/>
  <path d="M34262.457 10581.649v-1995.05l43.891-23.94 43.892-19.951 43.89-23.94 43.892-19.951 43.89-19.95 39.902-23.941 43.89-19.95 43.892-23.941v1995.05l-43.891 23.94-43.891 19.95-39.901 23.941-43.891 19.95-43.891 19.951-43.891 23.94-43.892 19.951z" fill="#030101"/>
  <path d="M31896.328 4341.133l-2282.337-1137.179v-1995.05l2282.337 1137.179z" fill="#9e9e9e"/>
  <path d="M30104.773 4341.133l-1875.347 941.663v-1995.05l1875.347-941.663z" fill="#030101"/>
  <path d="M32387.11 4588.519l-3666.902 1831.456v-1991.06l3666.902-1835.446z" fill="#030101"/>
  <path d="M28229.426 5282.796l-1388.555-694.277v-1995.05l1388.555 694.277zM31896.328 7114.252l-1388.555-694.277v-1995.05l1388.555 694.277z" fill="#9e9e9e"/>
  <path d="M28229.426 2509.677l-9213.14 4604.575v-1995.05l9213.14-4604.575z" fill="#030101"/>
  <path d="M26840.871 4588.519l-2282.337 1141.168v-1995.05l2282.337-1141.168zM30104.773 7114.252l-1875.347 937.674v-1995.05l1875.347-937.674z" fill="#030101"/>
  <path d="M29123.209 7114.252l-2773.12-1384.565v-1995.05l2773.12 1384.565z" fill="#9e9e9e"/>
  <path d="M32387.11 7361.638l-3666.902 1831.456v-1995.05l3666.902-1831.456z" fill="#030101"/>
  <path d="M32877.893 8502.807l-3263.902 1631.95v-1995.05l3263.902-1631.95z" fill="#030101"/>
  <path d="M36054.012 11966.214l-3666.902-1831.456v-1995.05l3666.902 1831.456z" fill="#9e9e9e"/>
  <path d="M41193.261 9887.372l-5542.249 2773.12v-1995.05l5542.249-2773.12z" fill="#030101"/>
  <path d="M47633.282 14982.73l-6930.803-3463.407v-1995.05l6930.803 3463.406z" fill="#9e9e9e"/>
  <path d="M37035.577 13350.778l-490.782 247.387v-1995.05l490.782-247.387z" fill="#030101"/>
  <path d="M50406.402 17755.849l-4157.684-2078.842v-1995.05l4157.684 2078.842zM38827.132 13350.778l-1388.555-690.287v-1995.05l1388.555 690.287zM36544.794 13598.165L33771.675 12213.6v-1995.05l2773.12 1384.565zM28229.426 8051.926l-490.782-243.396V5813.48l490.782 243.396zM23576.97 7114.252l-893.783-446.891V4672.31l893.782 446.891zM45757.935 15433.61l-1388.554-694.277v-1995.05l1388.554 694.278z" fill="#9e9e9e"/>
  <path d="M39808.696 13350.778l-1388.555 694.278v-1995.05l1388.555-694.278z" fill="#030101"/>
  <path d="M41596.261 13350.778l-1384.565-690.287v-1995.05l1384.565 690.287z" fill="#9e9e9e"/>
  <path d="M42581.816 13350.778l-3263.902 1631.951v-1995.05l3263.902-1631.95z" fill="#030101"/>
  <path d="M41743.895 15158.294v-1995.05l43.89-23.94 39.902-19.951 43.891-19.95 43.891-23.942 43.891-19.95 43.891-23.94 43.891-19.951 43.892-23.94v1995.05l-43.892 23.94-43.89 19.95-43.892 23.941-43.89 19.95-43.892 23.941-43.891 19.95-39.901 19.951z" fill="#030101"/>
  <path d="M41396.756 15329.868v-1995.05l43.891-19.95 43.891-23.941 39.901-19.95 43.891-19.951 43.891-23.94 43.892-19.951 43.89-23.94 43.892-19.951v1995.05l-43.891 19.95-43.891 23.94-43.891 19.951-43.892 23.94-43.89 19.951-39.902 19.95-43.89 23.941zM41049.617 15505.432v-1995.05l43.892-23.94 43.89-19.95 43.892-23.941 39.9-19.95 43.892-19.951 43.89-23.94 43.892-19.951 43.891-23.941v1995.05l-43.891 23.94-43.891 19.951-43.891 23.94-43.891 19.951-39.901 19.95-43.891 23.941-43.891 19.95z" fill="#030101"/>
  <path d="M40702.479 15677.007v-1995.05l43.89-19.95 43.892-23.941 43.891-19.95 43.891-23.942 39.901-19.95 43.891-19.95 43.891-23.941 43.891-19.95v1995.05l-43.89 19.95-43.892 23.94-43.89 19.951-39.902 19.95-43.891 23.941-43.891 19.95-43.891 23.941z" fill="#030101"/>
  <path d="M40702.479 15677.007l-490.783-243.396v-1995.05l490.783 243.396zM39317.914 14982.73l-1388.555-690.288v-1995.05l1388.555 690.287z" fill="#9e9e9e"/>
  <path d="M43619.242 14220.62v-1995.05l43.89-23.94 43.892-19.95 43.891-23.942 43.891-19.95 43.891-23.94 39.901-19.951 43.891-19.95 43.891-23.941v1995.05l-43.89 23.94-43.892 19.95-39.9 19.951-43.892 23.941-43.89 19.95-43.892 23.941-43.891 19.95z" fill="#030101"/>
  <path d="M43272.103 14392.194v-1995.05l43.891-19.95 43.891-23.94 43.891-19.951 43.892-23.94 43.89-19.951 43.892-23.94 39.9-19.951 43.892-19.95v1995.05l-43.891 19.95-39.901 19.95-43.891 23.94-43.891 19.951-43.892 23.94-43.89 19.951-43.892 23.941zM42928.954 14563.769v-1995.05l39.902-19.95 43.89-19.951 43.892-23.94 43.89-19.951 43.892-23.94 43.891-19.951 43.891-23.941 39.901-19.95v1995.05l-39.9 19.95-43.892 23.94-43.891 19.951-43.891 23.94-43.891 19.951-43.891 23.94-43.892 19.951z" fill="#030101"/>
  <path d="M42581.816 14739.333v-1995.05l43.89-23.94 39.902-19.95 43.891-19.951 43.891-23.941 43.891-19.95 43.891-23.941 43.891-19.95 43.891-23.941v1995.05l-43.89 23.94-43.892 19.95-43.89 23.941-43.892 19.951-43.891 23.94-43.891 19.951-39.901 19.95zM35160.23 5973.084l-897.773 446.89v-1995.05l897.773-446.89zM37929.36 14292.442l-1384.566 690.287v-1995.05l1384.565-690.287z" fill="#030101"/>
  <path d="M40211.696 16818.175l-2282.337-1141.168v-1995.05l2282.337 1141.168zM33280.893 11966.214l-1384.565-694.278v-1995.05l1384.565 694.278zM44369.38 16123.898l-2278.347-1141.169v-1995.05l2278.348 1141.169z" fill="#9e9e9e"/>
  <path d="M33771.675 12213.6l-1384.565 690.287v-1995.05l1384.565-690.287z" fill="#030101"/>
  <path d="M26350.089 7114.252l-2773.12-1384.565v-1995.05l2773.12 1384.565z" fill="#9e9e9e"/>
  <path d="M42581.816 16123.898l-2773.12 1388.555v-1995.05l2773.12-1388.555z" fill="#030101"/>
  <path d="M40211.696 18202.74l-1384.564-690.287v-1995.05l1384.564 690.287zM29123.209 2956.568l-893.783-446.891V514.627l893.783 446.89zM28229.426 3894.241l-490.782-243.396v-1995.05l490.782 243.396z" fill="#9e9e9e"/>
  <path d="M29613.99 3203.954l-1384.564 690.287v-1995.05l1384.565-690.287zM46248.718 15677.007l-115.713 55.861-115.713 59.852-111.723 55.861v-1995.05l111.723-55.861 115.713-59.852 115.713-55.861z" fill="#030101"/>
  <path d="M45905.57 15848.581l-115.714 59.852-115.713 55.86-115.713 55.862v-1995.05l115.713-55.861 115.713-55.861 115.713-59.852z" fill="#030101"/>
  <path d="M45558.43 16020.155l-111.722 59.852-115.713 55.861-115.713 55.862v-1995.05l115.713-55.862 115.713-55.861 111.722-59.852z" fill="#030101"/>
  <path d="M45215.282 16191.73l-111.723 59.851-115.713 55.862-115.713 55.86v-1995.05l115.713-55.86 115.713-55.862 111.723-59.851z" fill="#030101"/>
  <path d="M44872.133 16363.304l-115.713 59.851-111.723 55.862-115.712 59.851v-1995.05l115.712-59.851 111.723-55.862 115.713-59.851zM44528.985 16538.868l-115.713 55.862-111.723 55.861-115.713 59.852v-1995.05l115.713-59.852 111.723-55.861 115.713-55.862z" fill="#030101"/>
  <path d="M44185.836 16710.443l-115.713 55.861-115.713 55.861-111.723 59.852v-1995.05l111.723-59.852 115.713-55.861 115.713-55.861zM43842.687 16882.017l-115.712 55.861-115.713 55.862-115.713 59.851v-1995.05l115.713-59.851 115.713-55.862 115.712-55.861z" fill="#030101"/>
  <path d="M43495.549 17053.591l-111.723 55.862-115.713 59.851-115.713 55.862v-1995.05l115.713-55.862 115.713-59.851 111.723-55.862z" fill="#030101"/>
  <path d="M43152.4 17225.166l-111.723 55.86-115.713 59.852-115.713 55.862v-1995.05l115.713-55.862 115.713-59.851 111.723-55.861z" fill="#030101"/>
  <path d="M42581.816 17512.453v-1995.05l111.723-59.852 115.713-55.861v1995.05l-115.713 55.861zM22336.048 6838.935v-1995.05l43.892-19.95 43.89-19.95 43.892-23.941 43.89-19.95 39.902-23.942 43.89-19.95 43.892-23.94 43.891-19.951v1995.05l-43.891 19.95-43.891 23.941-43.891 19.95-39.901 23.941-43.891 19.95-43.891 23.941-43.891 19.95zM21988.91 7014.5V5019.45l43.89-23.941 43.892-19.95 43.891-19.951 43.891-23.94 43.891-19.951 39.901-23.94 43.891-19.951 43.891-23.94v1995.05l-43.89 23.94-43.892 19.95-39.9 23.94-43.892 19.951-43.891 23.941-43.891 19.95-43.891 19.951zM21641.771 7186.074v-1995.05l43.891-19.95 43.891-23.941 43.891-19.95 43.891-19.951 43.892-23.94 43.89-19.951 39.902-23.94 43.89-19.951V7014.5l-43.89 19.95-39.901 23.94-43.891 19.951-43.892 23.94-43.89 19.951-43.892 19.95-43.89 23.941zM21298.622 7361.638v-1995.05l39.901-23.94 43.892-19.95 43.89-23.941 43.892-19.95 43.89-19.951 43.892-23.941 43.891-19.95 39.901-23.941v1995.05l-39.901 23.94-43.891 19.951-43.891 23.94-43.891 19.951-43.891 19.95-43.891 23.941-43.892 19.95z" fill="#030101"/>
  <path d="M24558.534 7114.252l-3259.912 1631.951v-1995.05l3259.912-1631.95z" fill="#030101"/>
  <path d="M21298.622 7361.638l-490.782-247.386v-1995.05l490.782 247.386z" fill="#9e9e9e"/>
  <path d="M25456.307 8051.926l-4157.685 2082.832v-1995.05l4157.685-2082.832z" fill="#030101"/>
  <path d="M21298.622 8746.203l-2773.12-1384.565v-1995.05l2773.12 1384.565z" fill="#9e9e9e"/>
  <path d="M18525.503 7361.638L14367.819 9440.48V7445.43l4157.684-2078.842z" fill="#030101"/>
  <path d="M14367.819 9440.48l-490.783-247.386v-1995.05l490.783 247.386z" fill="#9e9e9e"/>
  <path d="M27331.654 7114.252l-1384.565 694.277V5813.48l1384.565-694.277zM32387.11 10134.758l-1388.555 690.287v-1995.05l1388.555-690.287zM40702.479 18450.126l-1384.565 694.278v-1995.05l1384.565-694.278zM37929.36 15677.007l-1384.566 694.277v-1995.05l1384.565-694.277z" fill="#030101"/>
  <path d="M29613.99 10134.758l-4157.683-2082.832v-1995.05l4157.684 2082.832z" fill="#9e9e9e"/>
  <path d="M45350.945 17512.453l-1384.564 690.287v-1995.05l1384.564-690.287z" fill="#030101"/>
  <path d="M45757.935 19591.295l-4161.674-2078.842v-1995.05l4161.674 2078.842zM47142.5 17512.453l-1384.565-694.278v-1995.05l1384.565 694.278zM30998.556 10825.045l-490.783-243.396v-1995.05l490.783 243.396z" fill="#9e9e9e"/>
  <path d="M33771.675 13598.165l-893.782 446.89v-1995.05l893.782-446.89z" fill="#030101"/>
  <path d="M36544.794 14982.73l-2773.119-1384.565v-1995.05l2773.12 1384.564zM32387.11 12903.887l-2773.12-1384.565v-1995.05l2773.12 1384.565zM28229.426 10825.045l-2773.12-1384.565V7445.43l2773.12 1384.565zM31896.328 15433.61l-2282.337-1141.168v-1995.05l2282.337 1141.169zM33280.893 16123.898l-893.783-446.891v-1995.05l893.783 446.89z" fill="#9e9e9e"/>
  <path d="M36544.794 16371.284l-6930.803-3467.397v-1995.05l6930.803 3467.397z" fill="#9e9e9e"/>
  <path d="M36054.012 17512.453l-2282.337-1141.169v-1995.05l2282.337 1141.169z" fill="#9e9e9e"/>
  <path d="M38336.35 14867.016l83.792-43.89v1995.05l-83.793 43.89-87.782 43.892-87.782 43.89-83.792 39.902V14994.7l83.792-39.901 87.782-43.891zM37989.21 15038.59l87.783-43.89v1995.05l-87.782 43.89-87.782 43.892-87.783 43.89-83.792 43.892v-1995.05l83.792-43.891 87.782-43.891zM37642.072 15214.155l87.782-43.891v1995.05l-87.782 43.891-87.782 43.891-83.792 39.901-87.782 43.891v-1995.05l87.782-43.89 83.792-39.902zM37294.933 15385.73l87.782-43.892v1995.05l-87.782 43.891-83.792 43.892-87.782 43.89-87.782 43.892v-1995.05l87.782-43.891 87.782-43.891zM36947.795 15561.294l87.782-43.891v1995.05l-87.782 43.89-83.792 39.902-87.783 43.89-87.782 43.892v-1995.05l87.782-43.891 87.782-43.891z" fill="#030101"/>
  <path d="M36604.646 15732.868l83.792-43.891v1995.05l-83.792 43.891-87.782 43.891-87.782 43.891-87.783 43.891v-1995.05l87.783-43.89 87.782-43.892zM36257.507 15904.442l83.792-39.9v1995.05l-83.792 39.9-87.782 43.892-87.782 43.89-83.792 43.892v-1995.05l83.792-43.891 87.782-43.891zM35910.369 16080.007l87.782-43.891v1995.05l-87.782 43.89-87.783 43.892-87.782 43.891-83.792 39.901v-1995.05l83.792-39.901 87.782-43.891z" fill="#030101"/>
  <path d="M39317.914 19144.404l-1879.337-941.664v-1995.05l1879.337 941.664z" fill="#9e9e9e"/>
  <path d="M38827.132 20281.582l-3666.902-1831.456v-1995.05l3666.902 1831.456z" fill="#9e9e9e"/>
  <path d="M36688.438 20457.147v-1995.05l43.891-23.941 43.891-19.95 43.891-19.951 43.892-23.94 43.89-19.951 39.902-23.94 43.89-19.951 43.892-23.94v1995.05l-43.891 23.94-43.891 19.95-39.901 23.94-43.891 19.951-43.892 23.94-43.89 19.951-43.892 19.95zM36341.3 20628.72v-1995.05l43.89-19.95 43.892-23.94 43.89-19.95 43.892-19.951 43.89-23.94 43.892-19.951 39.901-23.941 43.891-19.95v1995.05l-43.891 19.95-39.901 23.94-43.891 19.951-43.891 23.94-43.891 19.951-43.891 19.95-43.892 23.941zM35998.15 20804.285v-1995.05l39.902-23.94 43.89-19.95 43.892-23.942 43.891-19.95 43.891-19.95 43.891-23.941 43.891-19.95 39.901-23.941v1995.05l-39.9 23.94-43.892 19.95-43.89 23.941-43.892 19.951-43.891 19.95-43.891 23.941-43.891 19.95z" fill="#030101"/>
  <path d="M35651.012 20975.86v-1995.05l43.891-19.951 39.901-23.94 43.891-19.951 43.891-23.94 43.891-19.951 43.892-19.95 43.89-23.941 43.892-19.95v1995.05l-43.891 19.95-43.891 23.94-43.891 19.95-43.892 19.951-43.89 23.94-43.892 19.951-39.9 23.941z" fill="#030101"/>
  <path d="M42984.816 19591.295l-2282.337-1141.169v-1995.05l2282.337 1141.169z" fill="#9e9e9e"/>
  <path d="M32387.11 15677.007l-1388.555 694.277v-1995.05l1388.555-694.277z" fill="#030101"/>
  <path d="M30998.556 19144.404l-1384.565-694.278v-1995.05l1384.565 694.278zM27738.644 11966.214l-2282.337-1141.169v-1995.05l2282.337 1141.169z" fill="#9e9e9e"/>
  <path d="M28720.208 10581.649l-490.782 243.396v-1995.05l490.782-243.396zM33771.675 16371.284l-2773.12 1384.565v-1995.05l2773.12-1384.565zM25456.307 10825.045l-2282.338 1141.169v-1995.05l2282.338-1141.169z" fill="#030101"/>
  <path d="M25947.089 11966.214l-1879.337 937.673v-1995.05l1879.337-937.673zM41193.261 19591.295l-2773.12 1384.565v-1995.05l2773.12-1384.565zM34262.457 17512.453l-3263.902 1631.95v-1995.05l3263.902-1631.95z" fill="#030101"/>
  <path d="M30998.556 16371.284l-490.783-247.386v-1995.05l490.783 247.386zM24067.752 12903.887l-1384.565-690.287v-1995.05l1384.565 690.287z" fill="#9e9e9e"/>
  <path d="M29613.99 11519.323l-5055.456 2525.733v-1995.05l5055.457-2525.733z" fill="#030101"/>
  <path d="M21298.622 10134.758l-1388.554-694.278V7445.43l1388.554 694.278zM26840.871 14292.442l-490.782-247.386v-1995.05l490.782 247.386zM19419.285 9193.094l-893.782-446.891v-1995.05l893.782 446.891zM26350.089 15433.61l-2282.337-1141.168v-1995.05l2282.337 1141.169z" fill="#9e9e9e"/>
  <path d="M18525.503 8746.203l-4157.684 2078.842v-1995.05l4157.684-2078.842z" fill="#030101"/>
  <path d="M19910.068 9440.48L17627.73 10581.65v-1995.05l2282.338-1141.169z" fill="#030101"/>
  <path d="M20807.84 11271.936l-1388.555-690.287v-1995.05l1388.555 690.287zM26350.089 16818.175l-2773.12-1384.564v-1995.05l2773.12 1384.564z" fill="#9e9e9e"/>
  <path d="M25456.307 17755.849l-490.783-243.396v-1995.05l490.783 243.396z" fill="#9e9e9e"/>
  <path d="M30104.773 15433.61l-1384.565 690.288v-1995.05l1384.565-690.287z" fill="#030101"/>
  <path d="M29123.209 16818.175l-1384.565-694.277v-1995.05l1384.565 694.277zM29123.209 23748.979L26840.87 22607.81v-1995.05l2282.337 1141.169zM18034.72 11271.936l-897.772-446.89v-1995.05l897.773 446.89z" fill="#9e9e9e"/>
  <path d="M27331.654 16818.175l-1875.347 937.674v-1995.05l1875.347-937.674zM17136.948 10825.045l-1384.565 694.278v-1995.05l1384.565-694.278z" fill="#030101"/>
  <path d="M19016.285 11271.936l-2773.12 1388.555v-1995.05l2773.12-1388.555zM29613.99 17065.562l-4157.683 2078.842v-1995.05l4157.684-2078.842z" fill="#030101"/>
  <path d="M29613.99 18450.126l-893.782 446.891v-1995.05l893.783-446.89zM28229.426 19144.404l-2773.12 1384.564v-1995.05l2773.12-1384.564zM24558.534 16818.175l-490.782 247.387v-1995.05l490.782-247.387zM25456.307 9440.48l-6440.022 3220.011v-1995.05l6440.022-3220.01z" fill="#030101"/>
  <path d="M21298.622 12903.887l-490.782-243.396v-1995.05l490.782 243.396zM20807.84 14045.056l-2773.12-1384.565v-1995.05l2773.12 1384.565z" fill="#9e9e9e"/>
  <path d="M22683.187 12213.6l-1384.565 690.287v-1995.05l1384.565-690.287z" fill="#030101"/>
  <path d="M23173.97 13350.778l-2773.12 1388.555v-1995.05l2773.12-1388.555z" fill="#030101"/>
  <path d="M22683.187 14982.73l-490.782-243.397v-1995.05l490.782 243.396zM22192.405 16123.898l-2282.337-1141.169v-1995.05l2282.337 1141.169z" fill="#9e9e9e"/>
  <path d="M14858.601 11966.214l-490.782 247.386v-1995.05l490.782-247.386z" fill="#030101"/>
  <path d="M15752.383 11519.323l-490.782-247.387v-1995.05l490.782 247.386z" fill="#9e9e9e"/>
  <path d="M18034.72 14045.056l-2773.119-1384.565v-1995.05l2773.12 1384.565zM14367.819 10825.045l-1388.555-690.287v-1995.05l1388.555 690.287z" fill="#9e9e9e"/>
  <path d="M12979.264 10134.758l-893.783 446.891v-1995.05l893.783-446.891zM7437.015 12903.887l-2282.337 1141.169v-1995.05l2282.337-1141.169z" fill="#030101"/>
  <path d="M14367.819 12213.6l-2773.12-1388.555v-1995.05l2773.12 1388.555z" fill="#9e9e9e"/>
  <path d="M15261.601 14045.056l-2773.12-1384.565v-1995.05l2773.12 1384.565z" fill="#9e9e9e"/>
  <path d="M12085.482 11966.214l-103.743 51.871-99.753 51.871-103.742 47.882v-1995.05l103.742-47.882 99.753-51.871 103.743-51.871z" fill="#030101"/>
  <path d="M11778.244 12117.837l-99.753 51.872-103.742 51.871-99.753 51.871v-1995.05l99.753-51.87 103.742-51.872 99.753-51.871zM11474.996 12273.451l-103.742 51.872-103.743 47.88-99.752 51.872v-1995.05l99.752-51.871 103.743-47.881 103.742-51.872z" fill="#030101"/>
  <path d="M11167.758 12425.075l-103.742 51.872-99.753 51.87-103.742 47.882v-1995.05l103.742-47.881 99.753-51.871 103.743-51.872z" fill="#030101"/>
  <path d="M10860.52 12576.699l-99.752 51.871-103.742 51.872-99.753 51.87v-1995.05l99.753-51.87 103.742-51.872 99.753-51.871zM10557.273 12732.313l-103.742 51.871-103.743 47.881-99.752 51.872v-1995.05l99.752-51.872 103.743-47.88 103.742-51.872zM10250.035 12883.937l-103.742 51.871-99.753 51.871-103.742 47.882v-1995.05l103.742-47.882 99.753-51.871 103.742-51.871z" fill="#030101"/>
  <path d="M9942.798 13035.56l-99.753 51.872-103.742 51.871-103.743 51.871v-1995.05l103.743-51.87 103.742-51.872 99.753-51.871zM9635.56 13191.174l-99.752 51.872-103.743 47.88-99.753 51.872v-1995.05l99.753-51.871 103.743-47.881 99.752-51.872z" fill="#030101"/>
  <path d="M9332.313 13342.798l-103.743 51.871-99.753 51.872-103.742 47.881v-1995.05l103.742-47.881 99.753-51.871 103.743-51.872z" fill="#030101"/>
  <path d="M8821.58 13598.165v-1995.05l103.742-51.872 99.753-51.871v1995.05l-99.753 51.871z" fill="#030101"/>
  <path d="M12488.482 14045.056l-893.783-446.891v-1995.05l893.783 446.89zM8821.58 14982.73l-1875.347-937.674v-1995.05l1875.347 937.673z" fill="#9e9e9e"/>
  <path d="M11506.917 11647.006l87.782-43.891v1995.05l-87.782 43.89-87.782 43.892-83.792 43.89-87.782 39.902v-1995.05l87.782-39.901 83.792-43.891zM11159.778 11818.58l87.782-43.891v1995.05l-87.782 43.891-83.792 43.891-87.782 43.891-87.782 43.891v-1995.05l87.782-43.89 87.782-43.892zM10812.64 11994.144l87.782-43.89v1995.05l-87.782 43.89-83.793 43.891-87.782 39.902-87.782 43.89v-1995.05l87.782-43.89 87.782-39.902zM10469.491 12165.719l83.792-43.891v1995.05l-83.792 43.89-87.782 43.892-87.782 43.89-87.783 43.892v-1995.05l87.783-43.891 87.782-43.891zM10122.352 12341.283l83.792-43.891v1995.05l-83.792 43.891-87.782 39.901-87.782 43.891-83.792 43.891v-1995.05l83.792-43.89 87.782-43.892zM9775.214 12512.857l87.782-43.89v1995.05l-87.782 43.89-87.783 43.891-87.782 43.892-83.792 43.89v-1995.05l83.792-43.89 87.782-43.891zM9428.075 12684.432l87.782-39.901v1995.05l-87.782 39.9-87.782 43.892-83.792 43.89-87.783 43.892v-1995.05l87.783-43.891 83.792-43.891zM9080.936 12859.996l87.782-43.891v1995.05l-87.782 43.891-87.782 43.891-83.792 43.891-87.782 39.901v-1995.05l87.782-39.9 83.792-43.892z" fill="#030101"/>
  <path d="M8330.797 16123.898l-3666.902-1831.456v-1995.05l3666.902 1831.456z" fill="#9e9e9e"/>
  <path d="M24067.752 14292.442l-1384.565 690.287v-1995.05l1384.565-690.287zM13122.908 14220.62v-1995.05l175.564-87.782 171.574-87.782v1995.05l-171.574 87.782z" fill="#030101"/>
  <path d="M12779.759 14392.194v-1995.05l171.574-87.782 171.575-83.792v1995.05l-171.575 83.792z" fill="#030101"/>
  <path d="M12432.62 14563.769v-1995.05l171.575-83.792 175.564-87.782v1995.05l-175.564 87.782zM12085.482 14739.333v-1995.05l171.574-87.782 175.564-87.782v1995.05l-175.564 87.782zM11738.343 14910.907v-1995.05l171.574-83.792 175.564-87.782v1995.05l-175.564 87.782zM11391.204 15086.472v-1995.05l175.564-87.782 171.575-87.782v1995.05l-171.575 87.782z" fill="#030101"/>
  <path d="M11044.065 15258.046v-1995.05l175.565-87.782 171.574-83.792v1995.05l-171.574 83.792zM10700.917 15433.61v-1995.05l171.574-87.782 171.574-87.782v1995.05l-171.574 87.782z" fill="#030101"/>
  <path d="M10353.778 15605.185v-1995.05l171.574-87.782 175.565-83.792v1995.05l-175.565 83.792zM10006.64 15776.76v-1995.05l171.574-83.793 175.564-87.782v1995.05l-175.564 87.782zM9659.5 15952.324v-1995.05l171.575-87.783 175.564-87.782v1995.05l-175.564 87.782z" fill="#030101"/>
  <path d="M9312.362 16123.898v-1995.05l175.564-83.792 171.575-87.782v1995.05l-171.575 87.782z" fill="#030101"/>
  <path d="M8965.223 16299.462v-1995.05l175.565-87.782 171.574-87.782v1995.05l-171.574 87.782zM8618.085 16471.037v-1995.05l175.564-87.783 171.574-83.792v1995.05l-171.574 83.792z" fill="#030101"/>
  <path d="M8274.936 16646.601v-1995.05l171.574-87.782 171.575-87.782v1995.05l-171.575 87.782zM7927.797 16818.175v-1995.05l171.575-87.782 175.564-83.792v1995.05l-175.564 83.792zM16243.166 14045.056l-2773.12 1388.555v-1995.05l2773.12-1388.555z" fill="#030101"/>
  <path d="M19016.285 14045.056l-4157.684 2078.842v-1995.05l4157.684-2078.842z" fill="#030101"/>
  <path d="M24067.752 17065.562l-1384.565-694.278v-1995.05l1384.565 694.278z" fill="#9e9e9e"/>
  <path d="M29613.99 12903.887l-2773.119 1388.555v-1995.05l2773.12-1388.555z" fill="#030101"/>
  <path d="M29613.99 14292.442l-115.712 55.861-111.723 55.862-115.713 59.851v-1995.05l115.713-59.851 111.723-55.862 115.713-55.861zM29270.842 14464.016l-115.713 55.862-115.713 59.851-111.722 55.862v-1995.05l111.722-55.862 115.713-59.851 115.713-55.862zM28927.694 14635.59l-115.713 55.862-115.713 59.852-111.723 55.86v-1995.05l111.723-55.86 115.713-59.852 115.713-55.861zM28584.545 14807.165l-115.713 55.861-115.713 59.852-115.713 55.861v-1995.05l115.713-55.861 115.713-59.852 115.713-55.861zM28237.406 14978.74l-111.722 55.86-115.713 59.852-115.713 55.862v-1995.05l115.713-55.862 115.713-59.851 111.722-55.862z" fill="#030101"/>
  <path d="M27894.258 15150.314l-115.713 59.851-111.723 55.861-115.713 55.862v-1995.05l115.713-55.862 111.723-55.861 115.713-59.851z" fill="#030101"/>
  <path d="M27551.11 15321.888l-115.714 59.851-111.723 55.862-115.712 55.861v-1995.05l115.712-55.861 111.723-55.862 115.713-59.851zM27207.96 15493.462l-115.712 59.852-115.713 55.861-111.723 55.861v-1995.05l111.723-55.861 115.713-55.861 115.713-59.852z" fill="#030101"/>
  <path d="M26864.812 15665.036l-115.713 59.852-115.713 55.861-111.723 55.862v-1995.05l111.723-55.862 115.713-55.861 115.713-59.852zM26521.663 15836.61l-115.713 59.852-115.712 55.862-115.713 59.851v-1995.05l115.713-59.851 115.712-55.862 115.713-59.851zM25947.089 16123.898v-1995.05l115.713-55.861 111.723-55.862v1995.05l-111.723 55.862z" fill="#030101"/>
  <path d="M25456.307 19144.404l-2773.12-1388.555v-1995.05l2773.12 1388.555z" fill="#9e9e9e"/>
  <path d="M23576.97 19591.295l-893.783-446.891v-1995.05l893.782 446.89zM25456.307 20528.968l-490.783-247.386v-1995.05l490.783 247.386z" fill="#9e9e9e"/>
  <path d="M28141.644 18577.81l87.782-43.892v1995.05l-87.782 43.891-87.782 43.891-87.782 43.892-83.793 39.9v-1995.05l83.793-39.9 87.782-43.892zM27794.505 18749.384l87.782-43.891v1995.05l-87.782 43.89-87.782 43.892-83.792 43.89-87.782 43.892v-1995.05l87.782-43.891 83.792-43.891zM27447.366 18924.948l87.783-43.891v1995.05l-87.783 43.891-87.782 43.891-83.792 39.901-87.782 43.891v-1995.05l87.782-43.89 83.792-39.902zM27100.228 19096.522l87.782-43.89v1995.05l-87.782 43.89-83.792 43.892-87.782 43.89-87.783 43.892v-1995.05l87.782-43.891 87.783-43.891zM26753.09 19272.087l87.781-43.891v1995.05l-87.782 43.89-83.792 39.902-87.782 43.89-87.782 43.892v-1995.05l87.782-43.891 87.782-43.891zM26409.94 19443.661l83.793-43.891v1995.05l-83.793 43.891-87.782 43.891-87.782 43.891-87.782 43.891v-1995.05l87.782-43.89 87.782-43.892zM26062.802 19615.235l83.792-39.9v1995.05l-83.792 39.9-87.782 43.891-87.783 43.892-83.792 43.89v-1995.05l83.792-43.89 87.783-43.892zM25715.663 19790.8l87.782-43.891v1995.05l-87.782 43.89-87.782 43.892-83.792 43.891-87.782 39.901v-1995.05l87.782-39.901 83.792-43.891zM24558.534 19591.295l-1384.565 690.287v-1995.05l1384.565-690.287z" fill="#030101"/>
  <path d="M30998.556 20528.968l-2769.13-1384.564v-1995.05l2769.13 1384.564z" fill="#9e9e9e"/>
  <path d="M30507.773 21670.137l-2278.347-1141.169v-1995.05l2278.347 1141.169zM39317.914 21913.533l-1388.555-690.287v-1995.05l1388.555 690.287z" fill="#9e9e9e"/>
  <path d="M35160.23 18450.126l-4161.675 2078.842v-1995.05l4161.675-2078.842z" fill="#030101"/>
  <path d="M30998.556 17755.849l-1384.565-690.287v-1995.05l1384.565 690.287zM42091.033 20528.968l-494.772-247.386v-1995.05l494.772 247.386z" fill="#9e9e9e"/>
  <path d="M28720.208 21670.137l-1388.554 694.277v-1995.05l1388.554-694.277zM26840.871 22607.81l-1384.564 694.278v-1995.05l1384.564-694.278zM19822.285 13031.57l87.783-43.89v1995.05l-87.783 43.89-83.792 43.891-87.782 43.892-87.782 43.89v-1995.05l87.782-43.89 87.782-43.891zM19479.137 13207.135l83.792-43.891v1995.05l-83.792 43.89-87.782 43.892-87.783 39.9-83.792 43.892v-1995.05l83.792-43.891 87.783-39.901zM19131.998 13378.71l87.782-43.892v1995.05l-87.782 43.891-87.782 43.891-87.782 43.891-83.792 43.891v-1995.05l83.792-43.89 87.782-43.892zM18784.86 13554.274l87.782-43.892v1995.05l-87.783 43.891-87.782 39.902-83.792 43.89-87.782 43.892v-1995.05l87.782-43.891 83.792-43.891zM18437.72 13725.848l87.783-43.891v1995.05l-87.782 43.89-87.783 43.892-83.792 43.891-87.782 43.891v-1995.05l87.782-43.891 83.792-43.891zM18090.582 13897.422l87.782-39.9v1995.05l-87.782 39.9-83.792 43.891-87.782 43.891-87.783 43.891v-1995.05l87.783-43.89 87.782-43.892zM17743.443 14072.987l87.782-43.892v1995.05l-87.782 43.891-83.792 43.892-87.782 43.89-87.782 39.902v-1995.05l87.782-39.901 87.782-43.891zM17400.295 14244.56l83.792-43.89v1995.05l-83.792 43.89-87.782 43.892-87.783 43.891-87.782 43.891v-1995.05l87.782-43.891 87.782-43.891z" fill="#030101"/>
  <path d="M20400.85 16123.898l-3263.902 1631.95v-1995.05l3263.902-1631.95zM32387.11 21223.246l-2282.337 1141.168v-1995.05l2282.337-1141.168z" fill="#030101"/>
  <path d="M22683.187 16371.284l-5055.457 2525.733v-1995.05l5055.457-2525.733z" fill="#030101"/>
  <path d="M22683.187 17755.849l-3666.902 1835.446v-1995.05l3666.902-1835.446zM27331.654 23748.979l-1384.565 694.277v-1995.05l1384.565-694.277z" fill="#030101"/>
  <path d="M26840.871 25380.93l-1384.564-694.277v-1995.05l1384.564 694.277zM31896.328 23748.979l-2773.12-1384.565v-1995.05l2773.12 1384.565zM25456.307 21913.533l-490.783-243.396v-1995.05l490.783 243.396z" fill="#9e9e9e"/>
  <path d="M22336.048 19315.978v-1995.05l43.892-19.95 43.89-23.941 43.892-19.95 43.89-23.941 39.902-19.95 43.89-23.941 43.892-19.95 43.891-19.951v1995.05l-43.891 19.95-43.891 19.95-43.891 23.941-39.901 19.95-43.891 23.941-43.891 19.95-43.891 23.941zM21988.91 19487.552v-1995.05l43.89-19.95 43.892-19.95 43.891-23.941 43.891-19.95 43.891-23.941 39.901-19.951 43.891-23.94 43.891-19.951v1995.05l-43.89 19.95-43.892 23.941-39.9 19.95-43.892 23.941-43.891 19.95-43.891 23.941-43.891 19.95zM21641.771 19663.117v-1995.05l43.891-23.941 43.891-19.95 43.891-19.951 43.891-23.94 43.892-19.951 43.89-23.94 39.902-19.951 43.89-23.94v1995.05l-43.89 23.94-39.901 19.95-43.891 23.94-43.892 19.951-43.89 23.941-43.892 19.95-43.89 19.951zM21298.622 19834.69v-1995.05l39.901-19.95 43.892-23.94 43.89-19.95 43.892-19.951 43.89-23.94 43.892-19.951 43.891-23.94 39.901-19.951v1995.05l-39.901 19.95-43.891 23.94-43.891 19.951-43.891 23.94-43.891 19.951-43.891 19.95-43.892 23.941z" fill="#030101"/>
  <path d="M23576.97 20975.86l-1384.565-694.278v-1995.05l1384.565 694.278z" fill="#9e9e9e"/>
  <path d="M35651.012 19591.295l-2773.12 1384.565v-1995.05l2773.12-1384.565zM43675.103 17743.878l55.862-31.92 59.851-27.931 59.852-31.92 55.861-27.932 59.851-27.93v1995.05l-59.851 27.93-55.861 27.931-59.852 31.921-59.851 27.93-55.862 31.921-59.851 27.931v-1995.05zM43319.984 17919.443l59.852-31.92 59.851-27.932 55.862-27.93 59.851-31.921 59.852-27.93v1995.05l-59.852 27.93-59.851 31.92-55.862 27.931-59.851 27.931-59.852 31.92-55.861 27.932v-1995.05z" fill="#030101"/>
  <path d="M42968.855 18095.007l59.852-31.92 59.851-27.931 55.862-27.93 59.851-31.922 59.852-27.93v1995.05l-59.852 27.93-59.851 31.921-55.862 27.93-59.851 27.931-59.852 31.921-59.851 27.931v-1995.05zM42617.727 18270.572l59.851-27.931 55.862-31.92 59.851-27.932 59.852-31.92 55.861-27.931v1995.05l-55.861 27.93-59.852 31.921-59.851 27.931-55.862 31.921-59.851 27.93-59.852 27.931v-1995.05zM42266.598 18446.136l55.861-27.93 59.852-31.921 59.851-27.931 59.852-27.93 55.861-31.922v1995.05l-55.861 31.921-59.852 27.93-59.851 27.932-59.852 31.92-55.861 27.931-59.852 27.93v-1995.05z" fill="#030101"/>
  <path d="M42091.033 20528.968v-1995.05l55.862-27.93 59.851-31.921v1995.05l-59.851 31.92z" fill="#030101"/>
  <path d="M36054.012 21670.137l-1388.555-694.278v-1995.05l1388.555 694.278z" fill="#9e9e9e"/>
  <path d="M37929.36 21223.246l-2769.13 1384.564v-1995.05l2769.13-1384.564z" fill="#030101"/>
  <path d="M49915.62 18897.017l-2282.338-1141.168v-1995.05l2282.338 1141.168z" fill="#9e9e9e"/>
  <path d="M47633.282 17755.849l-893.782 446.891v-1995.05l893.782-446.891z" fill="#030101"/>
  <path d="M47633.282 19144.404l-1875.347-941.664v-1995.05l1875.347 941.664zM42091.033 21913.533l-1879.337-937.673v-1995.05l1879.337 937.673z" fill="#9e9e9e"/>
  <path d="M45989.361 19966.364v-1995.05l127.683-63.841 131.674-67.832v1995.05l-131.674 67.832zM45730.005 20094.047v-1995.05l127.683-63.841 131.673-63.842v1995.05l-131.673 63.842z" fill="#030101"/>
  <path d="M45466.658 20225.72v-1995.05l131.673-63.84 131.674-67.833v1995.05l-131.674 67.832zM45207.302 20357.394v-1995.05l131.673-67.832 127.683-63.841v1995.05l-127.683 63.841zM44947.945 20485.077v-1995.05l131.673-63.841 127.684-63.842v1995.05l-127.684 63.842zM44688.589 20616.75V18621.7l131.673-67.831 127.683-63.842v1995.05l-127.683 63.842zM44429.232 20744.434v-1995.05l127.683-63.842 131.674-63.841v1995.05l-131.674 63.841zM44169.876 20876.107v-1995.05l127.683-63.842 131.673-67.831v1995.05l-131.673 67.831zM43910.52 21003.79v-1995.05l127.682-63.841 131.674-63.842v1995.05l-131.674 63.842zM43647.173 21135.463v-1995.05l131.673-63.841 131.673-67.832v1995.05l-131.673 67.832zM43387.816 21267.137v-1995.05l131.673-67.832 127.683-63.841v1995.05l-127.683 63.841zM43128.46 21394.82v-1995.05l131.673-63.842 127.683-63.841v1995.05l-127.683 63.841z" fill="#030101"/>
  <path d="M42869.103 21526.493v-1995.05l131.673-67.831 127.684-63.842v1995.05l-127.684 63.842zM42609.747 21654.177v-1995.05l127.683-63.842 131.673-63.842v1995.05l-131.673 63.842zM42350.39 21785.85V19790.8l127.683-63.842 131.674-67.831v1995.05l-131.674 67.831z" fill="#030101"/>
  <path d="M42091.033 21913.533v-1995.05l127.684-63.842 131.673-63.841v1995.05l-131.673 63.841zM48124.065 18897.017l-490.783 247.387v-1995.05l490.783-247.387z" fill="#030101"/>
  <path d="M47142.5 20281.582l-893.782-446.891v-1995.05l893.782 446.891z" fill="#9e9e9e"/>
  <path d="M56443.423 16123.898L43475.598 22607.81v-1995.05l12967.825-6483.912zM39808.696 21670.137l-490.782 243.396v-1995.05l490.782-243.396z" fill="#030101"/>
  <path d="M43475.598 22607.81l-490.782-243.396v-1995.05l490.782 243.396z" fill="#9e9e9e"/>
  <path d="M24558.534 20975.86l-1384.565 694.277v-1995.05l1384.565-694.278zM30104.773 23748.979l-1384.565 694.277v-1995.05l1384.565-694.277z" fill="#030101"/>
  <path d="M23576.97 22364.414l-2278.348-1141.168v-1995.05l2278.348 1141.168zM19419.285 20281.582l-2282.337-1137.178v-1995.05l2282.337 1137.178zM17136.948 17755.849l-4648.466-2322.238v-1995.05l4648.466 2322.238z" fill="#9e9e9e"/>
  <path d="M16646.166 18897.017l-2278.347-1141.168v-1995.05l2278.347 1141.168z" fill="#9e9e9e"/>
  <path d="M17136.948 19144.404l-1384.565 690.287v-1995.05l1384.565-690.287z" fill="#030101"/>
  <path d="M15752.383 19834.69l-1384.564-690.286v-1995.05l1384.564 690.287zM22683.187 23302.088l-490.782-247.386v-1995.05l490.782 247.386zM21298.622 19834.69l-490.782-243.395v-1995.05l490.782 243.396zM13877.036 17512.453L11594.7 16371.284v-1995.05l2282.337 1141.169z" fill="#9e9e9e"/>
  <path d="M12085.482 17512.453l-3263.902 1631.95v-1995.05l3263.902-1631.95z" fill="#030101"/>
  <path d="M20807.84 20975.86l-897.772-446.892v-1995.05l897.772 446.891z" fill="#9e9e9e"/>
  <path d="M14367.819 17755.849l-4161.675 2078.842v-1995.05l4161.675-2078.842z" fill="#030101"/>
  <path d="M14367.819 19144.404l-2282.337 1137.178v-1995.05l2282.337-1137.178z" fill="#030101"/>
  <path d="M25456.307 23302.088l-1388.555-694.278v-1995.05l1388.555 694.278z" fill="#9e9e9e"/>
  <path d="M24067.752 22607.81l-1384.565 694.278v-1995.05l1384.565-694.278z" fill="#030101"/>
  <path d="M9715.362 18202.74l-2278.347-1137.179v-1995.05l2278.347 1137.179z" fill="#9e9e9e"/>
  <path d="M13470.046 20975.86l-490.782 247.386v-1995.05l490.782-247.386z" fill="#030101"/>
  <path d="M15261.601 20975.86l-1384.565-694.278v-1995.05l1384.565 694.278z" fill="#9e9e9e"/>
  <path d="M11594.7 10825.045l-3666.903 1835.446v-1995.05L11594.7 8829.995z" fill="#030101"/>
  <path d="M17136.948 16371.284l-490.782-247.386v-1995.05l490.782 247.386zM8821.58 13598.165l-1384.565-694.278v-1995.05l1384.565 694.278z" fill="#9e9e9e"/>
  <path d="M11594.7 16371.284l-1388.556 694.277v-1995.05l1388.555-694.277zM17631.72 20281.582l-2773.119 1388.555v-1995.05l2773.12-1388.555z" fill="#030101"/>
  <path d="M10206.144 17065.562l-490.782-247.387v-1995.05l490.782 247.387z" fill="#9e9e9e"/>
  <path d="M21789.405 22364.414l-1388.555 690.288v-1995.05l1388.555-690.288z" fill="#030101"/>
  <path d="M12979.264 21223.246l-1875.347-941.664v-1995.05l1875.347 941.664zM10206.144 19834.69l-490.782-243.395v-1995.05l490.782 243.396zM8821.58 19144.404l-490.783-247.387v-1995.05l490.783 247.387z" fill="#9e9e9e"/>
  <path d="M19910.068 20528.968l-2773.12 1384.565v-1995.05l2773.12-1384.565z" fill="#030101"/>
  <path d="M5557.678 16123.898l-1384.565-690.287v-1995.05l1384.565 690.287z" fill="#9e9e9e"/>
  <path d="M6539.243 16123.898l-2769.13 1388.555v-1995.05l2769.13-1388.555zM21298.622 21223.246l-2773.12 1384.564v-1995.05l2773.12-1384.564zM4663.895 14292.442l-2282.337 1141.169v-1995.05l2282.337-1141.169z" fill="#030101"/>
  <path d="M3770.113 16123.898l-494.772 247.386v-1995.05l494.772-247.386z" fill="#030101"/>
  <path d="M3275.34 16371.284l-1384.564-694.277v-1995.05l1384.565 694.277z" fill="#9e9e9e"/>
  <path d="M1890.776 15677.007l-893.782 446.89v-1995.05l893.782-446.89z" fill="#030101"/>
  <path d="M6048.46 17755.849l-490.782-243.396v-1995.05l490.782 243.396z" fill="#9e9e9e"/>
  <path d="M7437.015 17065.562l-1388.555 690.287v-1995.05l1388.555-690.287z" fill="#030101"/>
  <path d="M7927.797 18202.74l-1388.555 694.277v-1995.05l1388.555-694.277zM21789.405 23748.979l-490.783 247.386v-1995.05l490.783-247.386z" fill="#030101"/>
  <path d="M24965.524 24443.256l-897.772-446.89v-1995.05l897.772 446.89zM18525.503 22607.81l-490.782-243.396v-1995.05l490.782 243.396zM17136.948 21913.533l-490.782-243.396v-1995.05l490.782 243.396zM21298.622 23996.365l-1388.554-694.277v-1995.05l1388.554 694.277z" fill="#9e9e9e"/>
  <path d="M24067.752 23996.365l-2769.13 1384.565v-1995.05l2769.13-1384.565z" fill="#030101"/>
  <path d="M25456.307 24686.653l-3666.902 1835.446v-1995.05l3666.902-1835.446zM19910.068 23302.088l-893.783 446.891v-1995.05l893.783-446.891z" fill="#030101"/>
  <path d="M21298.622 25380.93l-7421.586-3710.793v-1995.05l7421.586 3710.793z" fill="#9e9e9e"/>
  <path d="M27331.654 25133.544l-490.783 247.386v-1995.05l490.783-247.386z" fill="#030101"/>
  <path d="M33280.893 21670.137l-893.783-446.891v-1995.05l893.783 446.89zM29123.209 25133.544l-1384.565-690.288v-1995.05l1384.565 690.288zM24067.752 26765.495l-490.783-243.397v-1995.05l490.783 243.397z" fill="#9e9e9e"/>
  <path d="M30104.773 25133.544l-2773.12 1388.555v-1995.05l2773.12-1388.555z" fill="#030101"/>
  <path d="M35160.23 22607.81l-494.773-243.396v-1995.05l494.773 243.396z" fill="#9e9e9e"/>
  <path d="M34262.457 21670.137l-1384.564 694.277v-1995.05l1384.564-694.277zM37929.36 22607.81l-2278.348 1141.169v-1995.05l2278.347-1141.169z" fill="#030101"/>
  <path d="M36544.794 24686.653l-4648.466-2322.239v-1995.05l4648.466 2322.239zM30998.556 24686.653l-490.783-243.397v-1995.05l490.783 243.397z" fill="#9e9e9e"/>
  <path d="M32877.893 23748.979l-1879.337 937.673v-1995.05l1879.337-937.673z" fill="#030101"/>
  <path d="M33771.675 24686.653l-3666.902 1835.446v-1995.05l3666.902-1835.446z" fill="#030101"/>
  <path d="M40211.696 23748.979L37929.36 22607.81v-1995.05l2282.337 1141.169zM32387.11 26765.495l-490.782-243.397v-1995.05l490.782 243.397z" fill="#9e9e9e"/>
  <path d="M38420.141 23748.979l-1875.347 937.673v-1995.05l1875.347-937.673z" fill="#030101"/>
  <path d="M31896.328 27906.663l-2773.12-1384.565v-1995.05l2773.12 1384.565zM27738.644 27212.386l-2282.337-1137.179v-1995.05l2282.337 1137.179z" fill="#9e9e9e"/>
  <path d="M28720.208 27212.386l-1388.554 694.277v-1995.05l1388.554-694.277z" fill="#030101"/>
  <path d="M35160.23 25380.93l-1388.555-694.277v-1995.05l1388.555 694.277z" fill="#9e9e9e"/>
  <path d="M33771.675 26075.207l-1384.565 690.288v-1995.05l1384.565-690.288z" fill="#030101"/>
  <path d="M28229.426 28844.337l-1879.337-937.674v-1995.05l1879.337 937.674z" fill="#9e9e9e"/>
  <path d="M30104.773 27906.663l-1875.347 937.674v-1995.05l1875.347-937.674zM25109.168 26246.782v-1995.05l43.891-19.95 43.891-23.942 43.891-19.95 39.901-23.94 43.891-19.951 43.891-23.94 43.892-19.951 43.89-19.95v1995.05l-43.89 19.95-43.892 19.95-43.89 23.94-43.892 19.951-39.9 23.941-43.892 19.95-43.891 23.941zM24762.03 26418.356v-1995.05l43.89-19.95 43.891-19.951 43.891-23.94 43.892-19.951 39.9-23.94 43.892-19.951 43.89-23.94 43.892-19.951v1995.05l-43.891 19.95-43.891 23.94-43.891 19.951-39.901 23.94-43.892 19.951-43.89 23.94-43.892 19.951zM24414.89 26593.92v-1995.05l43.892-23.94 43.89-19.95 43.892-19.951 43.89-23.94 43.892-19.951 39.901-23.941 43.891-19.95 43.891-23.941v1995.05l-43.89 23.94-43.892 19.951-39.901 23.94-43.891 19.951-43.891 23.94-43.891 19.951-43.891 19.95z" fill="#030101"/>
  <path d="M24067.752 26765.495v-1995.05l43.89-19.95 43.892-23.941 43.891-19.951 43.891-19.95 43.891-23.941 43.891-19.95 39.901-23.941 43.892-19.95v1995.05l-43.892 19.95-39.9 23.94-43.892 19.95-43.89 23.941-43.892 19.951-43.891 19.95-43.891 23.941zM25947.089 27212.386l-1388.555 694.277v-1995.05l1388.555-694.277zM35651.012 25133.544l-490.782 247.386v-1995.05l490.782-247.386z" fill="#030101"/>
  <path d="M34665.457 26522.099l-893.782-446.892v-1995.05l893.782 446.892zM41596.261 23054.702l-1384.565-690.288v-1995.05l1384.565 690.288z" fill="#9e9e9e"/>
  <path d="M42581.816 23054.702l-450.882 223.445v-1995.05l450.882-223.445z" fill="#030101"/>
  <path d="M42130.935 23278.147l-446.892 227.436v-1995.05l446.892-227.436zM41684.043 23505.583l-450.881 223.446v-1995.05l450.881-223.446zM41233.162 23729.029l-446.891 223.445v-1995.05l446.891-223.445zM40786.27 23952.474l-446.89 223.446v-1995.05l446.89-223.446zM40339.38 24175.92l-450.882 227.435v-1995.05l450.882-227.435zM39888.498 24403.355l-446.89 223.446v-1995.05l446.89-223.446zM39441.607 24626.801l-450.881 223.446v-1995.05l450.881-223.446zM38990.726 24850.247l-446.891 223.445v-1995.05l446.89-223.445zM38543.835 25073.692l-446.892 223.446v-1995.05l446.892-223.446zM38096.943 25297.138l-450.88 227.435v-1995.05l450.88-227.435zM37646.062 25524.573l-446.891 223.446v-1995.05l446.891-223.446zM37199.17 25748.02l-450.88 223.445v-1995.05l450.88-223.446zM36748.29 25971.465l-446.892 223.445v-1995.05l446.892-223.445zM36301.398 26194.91l-446.89 223.446v-1995.05l446.89-223.446zM35854.507 26418.356l-450.881 227.436v-1995.05l450.881-227.436zM35403.626 26645.792l-446.891 223.445v-1995.05l446.89-223.445z" fill="#030101"/>
  <path d="M34956.735 26869.237l-450.882 223.446v-1995.05l450.882-223.446zM34505.853 27092.683l-446.89 223.445v-1995.05l446.89-223.445zM34058.962 27316.128l-446.891 223.446v-1995.05l446.891-223.446z" fill="#030101"/>
  <path d="M33612.071 27539.574l-450.881 227.436v-1995.05l450.881-227.436zM33161.19 27767.01l-446.891 223.445v-1995.05l446.89-223.445zM32714.298 27990.455l-450.88 223.446v-1995.05l450.88-223.446zM32263.417 28213.9l-446.891 223.446v-1995.05l446.891-223.445zM31816.526 28437.346l-450.881 223.446v-1995.05l450.881-223.445zM31365.645 28660.792l-446.892 227.436v-1995.05l446.892-227.436zM30918.753 28888.228l-446.89 223.445v-1995.05l446.89-223.445zM30471.862 29111.673l-450.881 223.446v-1995.05l450.881-223.446zM30020.981 29335.119l-446.891 223.446v-1995.05l446.891-223.446zM29574.09 29558.565l-450.881 223.445v-1995.05l450.88-223.445zM29123.209 29782.01l-446.892 227.436v-1995.05l446.892-227.436zM28676.317 30009.446l-446.89 223.445v-1995.05l446.89-223.445z" fill="#030101"/>
  <path d="M28229.426 30232.891L15.43 16123.898v-1995.05L28229.426 28237.84z" fill="#9e9e9e"/>
  <path d="M28229.426 23.844l28213.997 14108.994-12967.825 6483.913-490.782-247.387 4157.684-2078.842-893.782-446.891c-1384.565 694.277-2773.12 1384.565-4157.685 2078.842l-1875.347-937.673 490.783-247.387 1384.564 694.278 3666.902-1835.446-4157.684-2078.842c925.703-462.852 1847.416-925.703 2773.12-1384.565l-2282.338-1141.169c-462.851 231.426-925.703 462.852-1384.564 694.278l-490.783-247.386c1089.298-542.654 2174.605-1089.298 3263.902-1631.951l490.783 247.386c-462.852 231.426-925.704 462.851-1384.565 694.277l2282.337 1141.169 893.782-446.891-1384.564-694.278 490.782-247.386 2773.12 1384.565 2282.337-1141.169-1384.565-694.277 490.782-247.386 4648.467 2326.228-490.782 247.386-2773.12-1384.565-2282.337 1141.169 2773.12 1384.565-490.783 247.386-4157.684-2078.842c-1220.97 610.485-2445.931 1220.97-3666.902 1835.446l893.782 446.891 1384.565-694.277 490.782 247.386-1384.564 694.277 3666.902 1835.446 2282.337-1141.168-2282.337-1141.169-893.783 446.891 1384.565 694.278-490.782 247.386-1875.347-937.674c462.851-231.426 925.703-462.851 1384.564-694.277l-1384.564-694.278 490.782-247.386 4157.684 2078.842 2282.337-1141.168-2773.12-1384.565 490.783-247.386 2773.12 1384.565 2282.337-1141.169-9213.141-4604.575-1384.565 694.277-1875.347-937.674 490.782-247.386 1384.565 694.278 893.783-446.892-2282.338-1141.168-2282.337 1141.168 3666.902 1835.446c462.852-231.425 925.703-462.851 1384.565-694.277l490.782 247.386-1384.565 694.278 893.783 446.89 1384.564-694.277 490.783 247.387-1384.565 694.277 1384.565 694.277-490.783 247.387-6930.803-3467.397-2282.337 1141.168 1384.564 694.278-1384.564 694.277 893.782 446.891 2282.337-1141.168-1384.565-694.278 490.783-247.386 1875.347 937.674-3263.902 1631.95-1384.565-694.277-1384.564 694.278-2773.12-1384.565-893.782 446.891 3666.902 1835.446c462.851-231.426 925.703-462.852 1384.564-694.277l2773.12 1384.564 1384.564-694.277 490.783 247.386-2773.12 1384.565 4157.684 2078.842c-626.445 311.228-1252.89 626.446-1875.347 937.673l-490.782-247.386 1384.565-694.277-2282.337-1141.169-1384.565 694.278-1875.347-937.674 490.782-247.386 1384.565 694.277 893.782-446.89-1384.564-694.278 1384.564-694.278-2282.337-1141.168-1384.565 694.277-6930.803-3467.397-2773.12 1384.565-490.782-247.386c1089.297-542.654 2174.604-1089.298 3263.902-1631.951l2773.12 1384.565 1384.564-694.278 2773.12 1384.565 2282.337-1141.169-1384.565-694.277 5546.239-2773.12-2282.337-1141.168-1384.565 694.277-490.782-247.386c462.851-231.426 925.703-462.852 1384.564-694.277l-893.782-446.892-1384.565 694.278-490.782-247.386c462.852-231.426 925.703-462.852 1384.565-694.278L35164.22 3966.063l-893.783 446.891 2773.12 1384.565-490.782 247.386-3263.902-1631.95c462.851-231.426 925.703-462.852 1384.565-694.278L32391.1 2577.508l-3666.902 1835.446 1384.565 694.278-1875.347 937.673-490.782-247.386c462.851-231.426 925.703-462.852 1384.565-694.277l-2773.12-1384.565 490.782-247.386 1384.565 694.277 3666.902-1835.446-2282.337-1141.168-1384.565 694.277-490.782-247.386c462.851-231.426 925.703-462.852 1384.564-694.278l-893.782-446.89-9213.14 4604.575 2282.336 1141.168 2282.338-1141.168-893.783-446.892c-462.851 231.426-925.703 462.852-1384.565 694.278l-490.782-247.386 1879.337-937.674 1875.347 937.674-3263.902 1631.95-2773.119-1384.564-4157.684 2078.842-490.783-247.386L28233.416-.096zM12983.254 7648.926l1384.565 694.277c1384.564-694.277 2773.12-1384.565 4157.684-2078.842l2773.12 1384.565c1683.822-841.912 3367.644-1683.823 5055.456-2525.734l-2773.12-1384.564 3263.902-1631.951 1384.565 694.277c462.852-231.426 925.703-462.852 1384.565-694.277l490.782 247.386-1875.347 937.673-1384.565-694.277-2282.337 1141.169 2773.12 1384.564-1384.565 694.278 2282.337 1141.168 3666.902-1835.446-1384.565-694.277L32391.1 3491.24l490.783 247.387c-462.852 231.425-925.704 462.851-1384.565 694.277l7824.586 3914.288 1384.565-694.277 490.782 247.386-5546.239 2773.12 1384.565 694.277-490.783 247.386-2773.119-1384.565-1384.565 694.278-2773.12-1384.565-5055.456 2525.733 2282.337 1141.169c925.703-462.852 1847.417-925.703 2773.12-1384.565l6930.803 3463.407 1384.565-694.277 490.783 247.386c-925.704 462.851-1847.417 925.703-2773.12 1384.564l3666.902 1835.446 1384.565-694.277 490.782 247.386-2773.12 1384.565 1384.565 694.277-490.782 247.387-1384.565-694.278-2773.12 1384.565-490.782-247.386 1384.565-694.278-1384.565-694.277 1875.347-937.674 490.783 247.387c-462.852 231.425-925.704 462.851-1384.565 694.277l893.782 446.891 2282.337-1141.168-3666.901-1835.446-4157.685 2078.842-2773.12-1384.565-2773.119 1384.565-490.782-247.387c1548.159-774.079 3100.308-1548.158 4648.467-2326.228l1384.564 694.278 2773.12-1384.565 490.782 247.386-3263.902 1631.95-1384.564-694.276-893.783 446.89 2282.337 1141.17 5055.457-2525.734-2282.337-1141.169-2773.12 1384.565-1384.564-694.277-4157.684 2078.842-2773.12-1384.565-3666.902 1835.446 3666.902 1835.446 893.782-446.891-1384.564-694.277 1384.564-694.278-893.782-446.891c-462.852 231.426-925.703 462.852-1384.565 694.277l-490.782-247.386 1879.337-937.673 1875.347 937.673-1384.565 694.278 1384.565 694.277-1384.565 694.277 2282.338 1141.169 2773.12-1384.565 490.781 247.386-1384.564 694.278 2773.12 1384.565-1384.565 694.277 1384.564 694.277L27335.643 24547l1384.565 694.277-1384.564 694.278 893.782 446.891 1384.565-694.277 490.782 247.386-1875.347 937.673-1875.347-937.673 1384.565-694.278-2282.337-1141.168c-462.852 231.426-925.704 462.851-1384.565 694.277L23580.96 24547l1875.347-937.673 1384.564 694.277 2282.337-1141.169-1384.564-694.277 1384.565-694.278-2282.338-1141.168-1384.564 694.277-1384.565-694.277-1384.565 694.277-490.782-247.386 1384.565-694.277-2282.338-1141.169-2773.12 1384.565-490.781-247.386c925.703-462.852 1847.416-925.704 2773.12-1384.565l-893.783-446.891-2773.12 1384.564-490.782-247.386c925.703-462.851 1847.416-925.703 2773.12-1384.565l-2282.338-1141.168-1384.564 694.277-1384.565-694.277-2282.337 1141.168 1384.564 694.278-490.782 247.386-1875.347-937.673c1089.297-542.654 2174.605-1089.298 3263.902-1631.951l1384.565 694.277 893.782-446.891-2282.337-1141.169-4157.684 2078.842-490.783-247.386c1384.565-694.277 2773.12-1384.565 4157.684-2078.842L11594.7 14392.194l-1384.564 694.278-490.783-247.386 1875.347-937.674 5546.24 2773.12 5051.466-2525.734-2282.337-1141.168c-925.704 462.851-1847.417 925.703-2773.12 1384.564l-490.782-247.386c1384.565-694.277 2773.12-1384.564 4157.684-2078.842l-2773.12-1384.565 2773.12-1384.564-1384.565-694.278 490.783-247.386 1384.564 694.278c1384.565-694.278 2773.12-1384.565 4157.684-2078.843l3263.902 1631.951-490.782 247.387-2773.12-1384.565-6440.02 3220.01 2282.336 1141.17 1384.565-694.278 490.782 247.386-2773.12 1384.565 4157.685 2078.842-490.782 247.386-1384.565-694.277-5055.457 2525.733 893.783 446.891 4157.684-2078.842 2773.12 1384.565 3666.901-1835.446-1384.564-694.278c626.445-311.228 1252.891-626.445 1875.347-937.673l490.782 247.386-1384.565 694.277 2282.337 1141.169 2282.338-1141.169-893.783-446.89-1384.564 694.277-490.783-247.387 1384.565-694.277L29610 12313.352c-1220.97 610.486-2445.932 1220.971-3666.902 1835.446l1384.565 694.278-1879.338 937.673-490.782-247.386 1384.565-694.277-2773.12-1384.565 490.783-247.386 1384.564 694.277 893.783-446.891-2282.337-1141.169-1384.565 694.278-490.782-247.386 5546.239-2773.12-2282.338-1141.169L23162 9987.125l893.783 446.89 1384.564-694.277 490.782 247.386-1879.337 937.674-1384.564-694.278-1384.565 694.278-490.782-247.387 4648.466-2326.228 2773.12 1384.565c462.851-231.426 925.703-462.852 1384.564-694.278l2773.12 1384.565 893.782-446.891-1384.564-694.278 490.782-247.386 2773.12 1384.565 893.782-446.891-3666.902-1835.446-1384.565 694.277-490.782-247.386 1875.347-937.674 1384.565 694.278c462.851-231.426 925.703-462.852 1384.564-694.278l490.783 247.387c-462.852 231.425-925.704 462.851-1384.565 694.277l2282.337 1141.169 2282.337-1141.169-893.782-446.891c-462.852 231.426-925.703 462.851-1384.565 694.277l-490.782-247.386 1384.565-694.277-2282.338-1141.169c-462.851 231.426-925.703 462.852-1384.564 694.277l-490.783-247.386 1384.565-694.277-2282.337-1141.169-3666.902 1835.446 893.782 446.891 2773.12-1384.564 490.782 247.386-3263.902 1631.95-4157.684-2078.841-4157.684 2078.842-1384.565-694.278-2282.337 1141.17 1384.565 694.276-2773.12 1384.565 2773.12 1384.565-4157.684 2078.842 2282.337 1141.169 2773.12-1384.565 490.782 247.386-3263.902 1631.951-4648.467-2326.228 2773.12-1384.565-2773.12-1384.565 490.783-247.386 3263.901 1631.951-2773.12 1384.565 893.783 446.89 3666.902-1835.445-2773.12-1384.565 2773.12-1384.565-893.782-446.89-1384.565 694.277-490.782-247.387c1384.565-694.277 2773.12-1384.564 4157.684-2078.842l-893.782-446.89-4157.685 2078.841-1384.564-694.277-893.783 446.891 2773.12 1384.565-490.782 247.386-2773.12-1384.565-3666.902 1835.446 893.783 446.891c925.703-462.851 1847.416-925.703 2773.119-1384.564l490.782 247.386c-1089.297 542.654-2174.604 1089.297-3263.901 1631.95l-1384.565-694.277-2282.337 1141.17L8813.6 13897.421l3666.901-1835.446-893.782-446.891c-925.703 462.851-1847.416 925.703-2773.12 1384.565l-1875.346-937.674 490.782-247.386 1384.565 694.277c925.703-462.851 1847.416-925.703 2773.119-1384.564l1875.347 937.673c-1847.416 925.703-3694.833 1847.416-5546.239 2773.12l2282.337 1141.168 1384.565-694.277 490.782 247.386-3263.902 1631.95-490.782-247.385 1384.565-694.278-2282.337-1141.168-1384.565 694.277-490.782-247.386 2773.12-1384.565-3666.903-1835.446-2282.337 1141.169 1384.565 694.277-490.783 247.386-1384.564-694.277-893.783 446.891 2282.338 1141.169 2282.337-1141.169-1384.565-694.277 490.782-247.386 1879.337 937.673-2773.12 1384.565L6044.47 16662.56l1384.565-694.277 490.782 247.386-1384.565 694.278 14755.39 7377.694 3666.902-1835.446-893.782-446.89-2773.12 1384.564-7421.586-3710.793 1384.565-694.277-1384.565-694.278 490.783-247.386 1384.564 694.277 1384.565-694.277 490.782 247.386-2773.12 1384.565 3666.903 1835.446 2773.12-1384.565 490.781 247.386-1384.564 694.278 1384.564 694.277-490.782 247.386-1384.565-694.277-893.782 446.891 2282.337 1141.169 2773.12-1384.565 1384.564 694.277 1384.565-694.277 490.782 247.386-1384.564 694.278 1384.564 694.277-490.782 247.386-1384.565-694.277-3666.901 1835.446 2282.337 1141.168 1384.564-694.277 490.783 247.386-1384.565 694.278 3666.902 1835.446 3666.902-1835.446-2773.12-1384.565 4648.467-2326.228 1875.347 937.673-490.782 247.386-1384.565-694.277-3666.902 1835.446 2282.337 1141.169 2282.337-1141.169-893.782-446.891-1384.565 694.277-490.782-247.386 1875.347-937.674 1384.565 694.278 5055.456-2525.733L37925.37 20636.7l-2282.337 1141.169 893.782 446.89 1384.565-694.277 490.782 247.387-1875.347 937.673-4648.466-2326.228 1384.565-694.278-893.783-446.89-2282.337 1141.168 2773.12 1384.565-1879.338 937.673-490.782-247.386 1384.565-694.278-2773.12-1384.564 1384.565-694.278-2282.337-1141.168c-925.703 462.851-1847.417 925.703-2773.12 1384.564l-490.782-247.386 3263.902-1631.95 2773.12 1384.564 4157.683-2078.842 490.783 247.386-2773.12 1384.565 1384.565 694.277-1384.565 694.278 2282.337 1141.168 2773.12-1384.565 2773.12 1384.565 893.782-446.891-1384.565-694.277 490.782-247.387 1875.347 937.674c-4784.13 2394.06-9568.26 4784.13-14352.39 7178.19L-.53 14140.818l12967.825-6483.912z" fill="#c9c9c9" fill-rule="nonzero"/>
</svg>
